<svg width="304" height="347" viewBox="0 0 304 347" fill="none" xmlns="http://www.w3.org/2000/svg">
    <circle cx="152" cy="194" r="152" fill="#A5A5A5"/>
    <path d="M101.5 314.5C100.333 310 107.8 285.4 117 271C126.2 256.6 141.333 243.167 148.5 239C144 233.5 137 227.5 137 219.5C137 211.5 140 203.333 141 201L113.5 191.5C107.333 202.5 97.5 223 95.0001 239C92.7771 253.227 95.3334 297.333 101.5 314.5Z" fill="black"/>
    <path d="M150.5 80.4999C151.167 85.8333 136.5 128.2 128.5 139C120.5 149.8 103.333 166.5 95.0001 173L179.5 204.167C175.333 187.5 175.917 153.5 183 128C190.083 102.5 225.5 42.3432 277 0.999924C253 16.4999 231.757 33.9999 211 57.9999C190.243 81.9999 177 95 162 134C155.077 152 156 174 156.5 180L119 167C123.5 166.333 134.6 149 139 139C143.4 129 152.333 90.3333 150.5 80.4999Z" fill="black"/>
    <path d="M101.5 314.5C100.333 310 107.8 285.4 117 271C126.2 256.6 141.333 243.167 148.5 239C144 233.5 137 227.5 137 219.5C137 211.5 140 203.333 141 201L113.5 191.5C107.333 202.5 97.5 223 95.0001 239C92.7771 253.227 95.3334 297.333 101.5 314.5Z" stroke="black"/>
    <path d="M150.5 80.4999C151.167 85.8333 136.5 128.2 128.5 139C120.5 149.8 103.333 166.5 95.0001 173L179.5 204.167C175.333 187.5 175.917 153.5 183 128C190.083 102.5 225.5 42.3432 277 0.999924C253 16.4999 231.757 33.9999 211 57.9999C190.243 81.9999 177 95 162 134C155.077 152 156 174 156.5 180L119 167C123.5 166.333 134.6 149 139 139C143.4 129 152.333 90.3333 150.5 80.4999Z" stroke="black"/>
    <path d="M101.5 314C151.833 302.667 223 306.5 213.5 315.5C195.927 332.149 190.873 351.183 225.5 345C253.5 340 267 334.052 287 331.5C272 333 221 341.5 214.5 337.5C208 333.5 216.5 321.5 224.5 315.5C235.535 307.224 217 303 188 301.5C149.585 299.513 108.667 311 101.5 314Z" fill="black" stroke="black"/>
</svg>