<svg width="468" height="240" viewBox="0 0 468 240" fill="none" xmlns="http://www.w3.org/2000/svg">
	<path d="M52.2 240C42.4 240 34.4 237.2 28.2 231.6C22 226 18.9 217.7 18.9 206.7V151.5C18.9 144.5 17.6 139.8 15 137.4C12.4 134.8 7.4 133.5 1.2368e-06 133.5V106.5C7.4 106.5 12.4 105.3 15 102.9C17.6 100.3 18.9 95.5 18.9 88.5V33.3C18.9 22.3 22 14 28.2 8.39998C34.4 2.79998 42.4 -1.78814e-05 52.2 -1.78814e-05H69V27H64.2C58.8 27 54.8 28.6 52.2 31.8C49.6 34.8 48.3 40.3 48.3 48.3V93.3C48.3 107.3 42.2 116.1 30 119.7V120.3C42.2 123.9 48.3 132.7 48.3 146.7V191.7C48.3 199.7 49.6 205.3 52.2 208.5C54.8 211.5 58.8 213 64.2 213H69V240H52.2ZM398.173 213H402.973C408.373 213 412.373 211.5 414.973 208.5C417.573 205.3 418.873 199.7 418.873 191.7V146.7C418.873 132.7 424.973 123.9 437.173 120.3V119.7C424.973 116.1 418.873 107.3 418.873 93.3V48.3C418.873 40.3 417.573 34.8 414.973 31.8C412.373 28.6 408.373 27 402.973 27H398.173V-1.78814e-05H414.973C424.773 -1.78814e-05 432.773 2.79998 438.973 8.39998C445.173 14 448.273 22.3 448.273 33.3V88.5C448.273 95.5 449.573 100.3 452.173 102.9C454.773 105.3 459.773 106.5 467.173 106.5V133.5C459.773 133.5 454.773 134.8 452.173 137.4C449.573 139.8 448.273 144.5 448.273 151.5V206.7C448.273 217.7 445.173 226 438.973 231.6C432.773 237.2 424.773 240 414.973 240H398.173V213Z" fill="#FFFFFF"/>
	<path d="M183.457 228C167.657 228 155.557 223.5 147.157 214.5C138.957 205.5 134.857 192.8 134.857 176.4V63.6C134.857 47.2 138.957 34.5 147.157 25.5C155.557 16.5 167.657 12 183.457 12C199.257 12 211.257 16.5 219.457 25.5C227.857 34.5 232.057 47.2 232.057 63.6V85.8H200.857V61.5C200.857 48.5 195.357 42 184.357 42C173.357 42 167.857 48.5 167.857 61.5V178.8C167.857 191.6 173.357 198 184.357 198C195.357 198 200.857 191.6 200.857 178.8V146.7H232.057V176.4C232.057 192.8 227.857 205.5 219.457 214.5C211.257 223.5 199.257 228 183.457 228ZM251.801 15H339.101V45H284.801V103.5H327.401V133.5H284.801V225H251.801V15Z"  fill="#FFFFFF"/>
</svg>
