<svg width="821" height="317" viewBox="0 0 821 317" fill="none" xmlns="http://www.w3.org/2000/svg">
	<path d="M52.2 240C42.4 240 34.4 237.2 28.2 231.6C22 226 18.9 217.7 18.9 206.7V151.5C18.9 144.5 17.6 139.8 15 137.4C12.4 134.8 7.4 133.5 -2.5779e-06 133.5V106.5C7.4 106.5 12.4 105.3 15 102.9C17.6 100.3 18.9 95.5 18.9 88.5V33.3C18.9 22.3 22 14 28.2 8.39998C34.4 2.79998 42.4 -1.78814e-05 52.2 -1.78814e-05H69V27H64.2C58.8 27 54.8 28.6 52.2 31.8C49.6 34.8 48.3 40.3 48.3 48.3V93.3C48.3 107.3 42.2 116.1 30 119.7V120.3C42.2 123.9 48.3 132.7 48.3 146.7V191.7C48.3 199.7 49.6 205.3 52.2 208.5C54.8 211.5 58.8 213 64.2 213H69V240H52.2ZM751.786 213H756.586C761.986 213 765.986 211.5 768.586 208.5C771.186 205.3 772.486 199.7 772.486 191.7V146.7C772.486 132.7 778.586 123.9 790.786 120.3V119.7C778.586 116.1 772.486 107.3 772.486 93.3V48.3C772.486 40.3 771.186 34.8 768.586 31.8C765.986 28.6 761.986 27 756.586 27H751.786V-1.78814e-05H768.586C778.386 -1.78814e-05 786.386 2.79998 792.586 8.39998C798.786 14 801.886 22.3 801.886 33.3V88.5C801.886 95.5 803.186 100.3 805.786 102.9C808.386 105.3 813.386 106.5 820.786 106.5V133.5C813.386 133.5 808.386 134.8 805.786 137.4C803.186 139.8 801.886 144.5 801.886 151.5V206.7C801.886 217.7 798.786 226 792.586 231.6C786.386 237.2 778.386 240 768.586 240H751.786V213Z" fill="#25695CFF"/>
	<path d="M183.457 228C167.657 228 155.557 223.5 147.157 214.5C138.957 205.5 134.857 192.8 134.857 176.4V63.6C134.857 47.2 138.957 34.5 147.157 25.5C155.557 16.5 167.657 12 183.457 12C199.257 12 211.257 16.5 219.457 25.5C227.857 34.5 232.057 47.2 232.057 63.6V85.8H200.857V61.5C200.857 48.5 195.357 42 184.357 42C173.357 42 167.857 48.5 167.857 61.5V178.8C167.857 191.6 173.357 198 184.357 198C195.357 198 200.857 191.6 200.857 178.8V146.7H232.057V176.4C232.057 192.8 227.857 205.5 219.457 214.5C211.257 223.5 199.257 228 183.457 228ZM251.801 15H300.701C317.701 15 330.101 19 337.901 27C345.701 34.8 349.601 46.9 349.601 63.3V76.2C349.601 98 342.401 111.8 328.001 117.6V118.2C336.001 120.6 341.601 125.5 344.801 132.9C348.201 140.3 349.901 150.2 349.901 162.6V199.5C349.901 205.5 350.101 210.4 350.501 214.2C350.901 217.8 351.901 221.4 353.501 225H319.901C318.701 221.6 317.901 218.4 317.501 215.4C317.101 212.4 316.901 207 316.901 199.2V160.8C316.901 151.2 315.301 144.5 312.101 140.7C309.101 136.9 303.801 135 296.201 135H284.801V225H251.801V15ZM296.801 105C303.401 105 308.301 103.3 311.501 99.9C314.901 96.5 316.601 90.8 316.601 82.8V66.6C316.601 59 315.201 53.5 312.401 50.1C309.801 46.7 305.601 45 299.801 45H284.801V105H296.801ZM398.297 15H442.997L477.197 225H444.197L438.197 183.3V183.9H400.697L394.697 225H364.097L398.297 15ZM434.297 155.4L419.597 51.6H418.997L404.597 155.4H434.297ZM493.207 15H580.507V45H526.207V103.5H568.807V133.5H526.207V225H493.207V15ZM625.062 45H590.562V15H692.562V45H658.062V225H625.062V45ZM139.824 271.2H158.448V277.6H146.864V290.08H155.952V296.48H146.864V316H139.824V271.2ZM161.824 271.2H172.256C175.883 271.2 178.528 272.053 180.192 273.76C181.856 275.424 182.688 278.005 182.688 281.504V284.256C182.688 288.907 181.152 291.851 178.08 293.088V293.216C179.787 293.728 180.981 294.773 181.664 296.352C182.389 297.931 182.752 300.043 182.752 302.688V310.56C182.752 311.84 182.795 312.885 182.88 313.696C182.965 314.464 183.179 315.232 183.52 316H176.352C176.096 315.275 175.925 314.592 175.84 313.952C175.755 313.312 175.712 312.16 175.712 310.496V302.304C175.712 300.256 175.371 298.827 174.688 298.016C174.048 297.205 172.917 296.8 171.296 296.8H168.864V316H161.824V271.2ZM171.424 290.4C172.832 290.4 173.877 290.037 174.56 289.312C175.285 288.587 175.648 287.371 175.648 285.664V282.208C175.648 280.587 175.349 279.413 174.752 278.688C174.197 277.963 173.301 277.6 172.064 277.6H168.864V290.4H171.424ZM193.076 271.2H202.612L209.908 316H202.868L201.588 307.104V307.232H193.588L192.308 316H185.78L193.076 271.2ZM200.756 301.152L197.62 279.008H197.492L194.42 301.152H200.756ZM213.324 271.2H223.372L227.852 303.264H227.98L232.46 271.2H242.508V316H235.852V282.08H235.724L230.604 316H224.716L219.596 282.08H219.468V316H213.324V271.2ZM247.761 271.2H266.961V277.6H254.801V289.44H264.465V295.84H254.801V309.6H266.961V316H247.761V271.2ZM269.347 271.2H276.131L279.267 305.632H279.395L282.723 271.2H290.403L293.731 305.632H293.859L296.995 271.2H303.076L298.531 316H289.763L286.563 285.792H286.435L283.235 316H273.891L269.347 271.2ZM316.812 316.64C313.356 316.64 310.711 315.659 308.876 313.696C307.042 311.733 306.124 308.96 306.124 305.376V281.824C306.124 278.24 307.042 275.467 308.876 273.504C310.711 271.541 313.356 270.56 316.812 270.56C320.268 270.56 322.914 271.541 324.748 273.504C326.583 275.467 327.5 278.24 327.5 281.824V305.376C327.5 308.96 326.583 311.733 324.748 313.696C322.914 315.659 320.268 316.64 316.812 316.64ZM316.812 310.24C319.244 310.24 320.46 308.768 320.46 305.824V281.376C320.46 278.432 319.244 276.96 316.812 276.96C314.38 276.96 313.164 278.432 313.164 281.376V305.824C313.164 308.768 314.38 310.24 316.812 310.24ZM332.261 271.2H342.693C346.32 271.2 348.965 272.053 350.629 273.76C352.293 275.424 353.125 278.005 353.125 281.504V284.256C353.125 288.907 351.589 291.851 348.517 293.088V293.216C350.224 293.728 351.419 294.773 352.101 296.352C352.827 297.931 353.189 300.043 353.189 302.688V310.56C353.189 311.84 353.232 312.885 353.317 313.696C353.403 314.464 353.616 315.232 353.957 316H346.789C346.533 315.275 346.363 314.592 346.277 313.952C346.192 313.312 346.149 312.16 346.149 310.496V302.304C346.149 300.256 345.808 298.827 345.125 298.016C344.485 297.205 343.355 296.8 341.733 296.8H339.301V316H332.261V271.2ZM341.861 290.4C343.269 290.4 344.315 290.037 344.997 289.312C345.723 288.587 346.085 287.371 346.085 285.664V282.208C346.085 280.587 345.787 279.413 345.189 278.688C344.635 277.963 343.739 277.6 342.501 277.6H339.301V290.4H341.861ZM358.074 271.2H365.114V290.08L374.074 271.2H381.114L372.73 287.648L381.242 316H373.882L367.93 296.032L365.114 301.728V316H358.074V271.2Z" fill="black"/>
</svg>
